{
  "asset": {
    "version": "2.0",
    "generator": "Sketchup glTF Exporter by Evan Prananta."
  },
  "scene": 0,
  "scenes": [
    {
      "nodes": [
        0
      ]
    }
  ],
  "samplers": [
    {
    }
  ],
  "nodes": [
    {
      "name": "root",
      "mesh": 0
    }
  ],
  "materials": [
    {
      "pbrMetallicRoughness": {
        "baseColorTexture": {
          "index": 0
        },
        "metallicFactor": 0.1,
        "roughnessFactor": 0.9
      },
      "name": "Material",
      "doubleSided": true,
      "alphaMode": "OPAQUE"
    },
    {
      "pbrMetallicRoughness": {
        "baseColorTexture": {
          "index": 1
        },
        "metallicFactor": 0.1,
        "roughnessFactor": 0.9
      },
      "name": "black-sand-paper-texture_53876-88601",
      "doubleSided": true,
      "alphaMode": "OPAQUE"
    }
  ],
  "images": [
    {
      "bufferView": 0,
      "mimeType": "image/png"
    },
    {
      "bufferView": 1,
      "mimeType": "image/png"
    }
  ],
  "textures": [
    {
      "source": 0,
      "sampler": 0
    },
    {
      "source": 1,
      "sampler": 0
    }
  ],
  "meshes": [
    {
      "primitives": [
        {
          "attributes": {
            "POSITION": 0,
            "NORMAL": 1,
            "TEXCOORD_0": 2
          },
          "indices": 3,
          "mode": 4,
          "material": 0
        },
        {
          "attributes": {
            "POSITION": 0,
            "NORMAL": 1,
            "TEXCOORD_0": 2
          },
          "indices": 4,
          "mode": 4,
          "material": 1
        }
      ]
    }
  ],
  "accessors": [
    {
      "bufferView": 2,
      "componentType": 5126,
      "count": 620,
      "type": "VEC3",
      "min": [
        33.317815281587656,
        -3.1379532777491194e-15,
        -27.667249689692003
      ],
      "max": [
        35.11602221399735,
        0.599999999999997,
        -25.869042757282315
      ]
    },
    {
      "bufferView": 3,
      "componentType": 5126,
      "count": 620,
      "type": "VEC3"
    },
    {
      "bufferView": 4,
      "componentType": 5126,
      "count": 620,
      "type": "VEC2"
    },
    {
      "bufferView": 5,
      "componentType": 5123,
      "count": 1068,
      "type": "SCALAR"
    },
    {
      "bufferView": 5,
      "componentType": 5123,
      "count": 66,
      "type": "SCALAR",
      "byteOffset": 2136
    }
  ],
  "bufferViews": [
    {
      "buffer": 0,
      "byteLength": 794440
    },
    {
      "buffer": 0,
      "byteOffset": 794440,
      "byteLength": 118569
    },
    {
      "buffer": 0,
      "byteOffset": 913020,
      "byteLength": 7440,
      "target": 34962,
      "byteStride": 12
    },
    {
      "buffer": 0,
      "byteOffset": 920460,
      "byteLength": 7440,
      "target": 34962,
      "byteStride": 12
    },
    {
      "buffer": 0,
      "byteOffset": 927904,
      "byteLength": 4960,
      "target": 34962,
      "byteStride": 8
    },
    {
      "buffer": 0,
      "byteOffset": 932864,
      "byteLength": 2268,
      "target": 34963
    }
  ],
  "buffers": [
    {
      "uri": "data:application/octet-stream;base64,",
      "byteLength": 935132
    }
  ]
}